<?xml version="1.0" encoding="utf-8"?>
<!-- Generator: Adobe Illustrator 22.1.0, SVG Export Plug-In . SVG Version: 6.00 Build 0)  -->
<svg version="1.1" id="Layer_1" xmlns="http://www.w3.org/2000/svg" xmlns:xlink="http://www.w3.org/1999/xlink" x="0px" y="0px"
	 viewBox="0 0 263.3 241.3" style="enable-background:new 0 0 263.3 241.3;" xml:space="preserve">
<style type="text/css">
	.st0{fill:none;stroke:current;stroke-width:5;stroke-miterlimit:10;}
	.st1{fill:none;stroke:current;stroke-width:5;stroke-miterlimit:10;}
	.st2{fill:none;stroke:current;stroke-width:5;stroke-miterlimit:10;}
	.st3{fill:none;stroke:current;stroke-width:5;stroke-miterlimit:10;}
	.st4{fill:none;stroke:current;stroke-width:6;stroke-miterlimit:10;}
	.st5{fill:none;stroke:current;stroke-width:6;stroke-miterlimit:10;}
	.st6{fill:none;stroke:current;stroke-miterlimit:10;}
	.st7{fill:none;stroke:current;stroke-width:6;stroke-miterlimit:10;}
	.st8{fill:none;stroke:current;stroke-width:6;stroke-miterlimit:10;}
	.st9{fill:none;stroke:current;stroke-miterlimit:10;}
	.st10{fill:none;stroke:current;stroke-miterlimit:10;}
	.st11{fill:none;stroke:current;stroke-miterlimit:10;}
	.st12{fill:none;stroke:current;stroke-width:6;stroke-miterlimit:10;}
	.st13{fill:none;stroke:current;stroke-width:6;stroke-miterlimit:10;}
	.st14{fill:none;stroke:current;stroke-miterlimit:10;}
	.st15{fill:none;stroke:current;stroke-width:6;stroke-miterlimit:10;}
	.st16{fill:none;stroke:current;stroke-width:6;stroke-miterlimit:10;}
	.st17{fill:none;stroke:current;stroke-miterlimit:10;}
	.st18{fill:none;stroke:current;stroke-miterlimit:10;}
	.st19{fill:none;stroke:current;stroke-miterlimit:10;}
	.st20{fill:current;}
	.st21{fill:current;}
	.st22{fill:none;stroke:current;stroke-width:6;stroke-miterlimit:10;}
	.st23{fill:none;stroke:current;stroke-width:6;stroke-miterlimit:10;}
	.st24{fill:none;stroke:current;stroke-miterlimit:10;}
	.st25{fill:none;stroke:current;stroke-width:6;stroke-miterlimit:10;}
	.st26{fill:none;stroke:current;stroke-width:6;stroke-miterlimit:10;}
	.st27{fill:none;stroke:current;stroke-miterlimit:10;}
	.st28{fill:none;stroke:current;stroke-miterlimit:10;}
	.st29{fill:none;stroke:current;stroke-miterlimit:10;}
</style>
<polygon class="st20" points="80.4,78.3 87,78.3 87,83.5 "/>
<polygon class="st21" points="99.3,141.3 105.6,141.3 105.6,146.5 "/>
<g>
	<polyline style="fill:none;stroke:current;stroke-width:6;stroke-miterlimit:10;" points="143.7,119.8 173.3,166.7 
		197.7,166.7 197.8,143.9 197.8,106.2 197.9,66.3 194.4,62.3 180.6,62.3 180.9,148.8 154.8,106.1 	"/>
	<polyline style="fill:none;stroke:current;stroke-width:6;stroke-miterlimit:10;" points="99.7,166.7 87.5,166.7 
		82.8,162.9 82.8,121.1 	"/>
	<polyline style="fill:none;stroke:current;stroke-miterlimit:10;" points="140.2,120.1 167.5,163.9 195.2,163.9 
		194.9,143.9 195.2,105.9 195.6,59.9 178.1,59.9 179.6,151.7 153,109.9 	"/>
	<path style="fill:none;stroke:current;stroke-width:6;stroke-miterlimit:10;" d="M84,78.6l-0.1-15.4l46.8-0.6
		c0,0,10-0.7,15.4,4.8c3.8,3.8,8.2,2.7,8.6,27c0.3,18.5-3.7,18.8-8.4,23.9c-3.1,3.4-15.2,2.7-15.2,2.7l28.6,45.7h-21l-26.2-45.5
		h-9.9v20.4"/>
	<path class="st4" d="M102.6,80l0.6,21.8l4.3,3.3l16.6-0.1c7.1-0.3,11.9-0.5,11.9-12.4c0-12.7-11.6-12.6-11.6-12.6H102.6z"/>
	<polyline style="fill:none;stroke:current;stroke-miterlimit:10;" points="99.7,163.9 80.4,163.9 80.4,121.1 	"/>
	<path class="st6" d="M99.1,141.5v-23.1h8.8l26.2,45.5h21.3l-29.3-45.5c0,0,15.8,0.5,18.8-2.9c4.6-5.1,6.6-4.4,6.3-22.8
		c-0.4-24.3-4.9-24.2-8.6-28c-5.4-5.5-15.4-4.8-15.4-4.8l-46.8,0.6l0.1,18.1"/>
	<path style="fill:none;stroke:current;stroke-miterlimit:10;" d="M100.1,77.2l0.5,25.1l21-0.2c7.1-0.3,11.9,0.2,11.9-12.4
		c0-12.7-11.6-12.6-11.6-12.6H100.1z"/>
</g>
<polygon class="st20" points="106,169.6 99.7,169.6 99.7,164.4 "/>
</svg>
